<mxfile host="app.diagrams.net" modified="2024-05-18T17:12:02.387Z" agent="Mozilla/5.0 (X11; Linux x86_64) AppleWebKit/537.36 (KHTML, like Gecko) Chrome/124.0.0.0 Safari/537.36" etag="y6j9VQAYTSDsS3YHkm4W" version="24.1.0" type="device">
  <diagram name="Page-1" id="6_8-zNtmNvxRFAlrYNkr">
    <mxGraphModel dx="2732" dy="1713" grid="0" gridSize="10" guides="1" tooltips="1" connect="1" arrows="1" fold="1" page="0" pageScale="1" pageWidth="850" pageHeight="1100" math="0" shadow="0">
      <root>
        <mxCell id="0" />
        <mxCell id="1" parent="0" />
        <mxCell id="WjdVC1TT9vtNxCyi74G0-36" style="edgeStyle=none;curved=1;rounded=0;orthogonalLoop=1;jettySize=auto;html=1;fontSize=12;startSize=8;endSize=8;" edge="1" parent="1" source="WjdVC1TT9vtNxCyi74G0-26" target="WjdVC1TT9vtNxCyi74G0-32">
          <mxGeometry relative="1" as="geometry">
            <Array as="points">
              <mxPoint x="719" y="518" />
            </Array>
          </mxGeometry>
        </mxCell>
        <mxCell id="WjdVC1TT9vtNxCyi74G0-35" style="edgeStyle=none;curved=1;rounded=0;orthogonalLoop=1;jettySize=auto;html=1;fontSize=12;startSize=8;endSize=8;" edge="1" parent="1" source="WjdVC1TT9vtNxCyi74G0-6" target="WjdVC1TT9vtNxCyi74G0-32">
          <mxGeometry relative="1" as="geometry">
            <Array as="points">
              <mxPoint x="608" y="358" />
            </Array>
          </mxGeometry>
        </mxCell>
        <mxCell id="WjdVC1TT9vtNxCyi74G0-34" style="edgeStyle=none;curved=1;rounded=0;orthogonalLoop=1;jettySize=auto;html=1;fontSize=12;startSize=8;endSize=8;" edge="1" parent="1" source="WjdVC1TT9vtNxCyi74G0-5" target="WjdVC1TT9vtNxCyi74G0-32">
          <mxGeometry relative="1" as="geometry" />
        </mxCell>
        <mxCell id="WjdVC1TT9vtNxCyi74G0-41" style="edgeStyle=none;curved=1;rounded=0;orthogonalLoop=1;jettySize=auto;html=1;fontSize=12;startSize=8;endSize=8;" edge="1" parent="1" source="WjdVC1TT9vtNxCyi74G0-1" target="WjdVC1TT9vtNxCyi74G0-32">
          <mxGeometry relative="1" as="geometry">
            <mxPoint x="137.52941176470586" y="653.0000000000001" as="targetPoint" />
            <Array as="points">
              <mxPoint x="-131" y="517" />
            </Array>
          </mxGeometry>
        </mxCell>
        <mxCell id="WjdVC1TT9vtNxCyi74G0-1" value="&lt;font style=&quot;font-size: 14px;&quot;&gt;&lt;b&gt;UserAPI&lt;/b&gt;&lt;br&gt;интерфейс для авторизации, пользовательских данных&lt;/font&gt;" style="rounded=0;whiteSpace=wrap;html=1;fillColor=#dae8fc;strokeColor=#6c8ebf;" vertex="1" parent="1">
          <mxGeometry x="-191" y="113" width="226" height="69" as="geometry" />
        </mxCell>
        <mxCell id="WjdVC1TT9vtNxCyi74G0-22" style="edgeStyle=none;curved=1;rounded=0;orthogonalLoop=1;jettySize=auto;html=1;fontSize=12;startSize=8;endSize=8;entryX=0.5;entryY=1;entryDx=0;entryDy=0;" edge="1" parent="1" source="WjdVC1TT9vtNxCyi74G0-5" target="WjdVC1TT9vtNxCyi74G0-1">
          <mxGeometry relative="1" as="geometry">
            <Array as="points">
              <mxPoint x="-25" y="289" />
            </Array>
          </mxGeometry>
        </mxCell>
        <mxCell id="WjdVC1TT9vtNxCyi74G0-23" value="Проверяет авт. токен" style="edgeLabel;html=1;align=center;verticalAlign=middle;resizable=0;points=[];fontSize=12;" vertex="1" connectable="0" parent="WjdVC1TT9vtNxCyi74G0-22">
          <mxGeometry x="0.1531" y="-33" relative="1" as="geometry">
            <mxPoint x="12" y="29" as="offset" />
          </mxGeometry>
        </mxCell>
        <mxCell id="WjdVC1TT9vtNxCyi74G0-24" style="edgeStyle=none;curved=1;rounded=0;orthogonalLoop=1;jettySize=auto;html=1;entryX=1;entryY=0.5;entryDx=0;entryDy=0;fontSize=12;startSize=8;endSize=8;" edge="1" parent="1" source="WjdVC1TT9vtNxCyi74G0-6" target="WjdVC1TT9vtNxCyi74G0-1">
          <mxGeometry relative="1" as="geometry" />
        </mxCell>
        <mxCell id="WjdVC1TT9vtNxCyi74G0-25" value="Проверяет авт. токен" style="edgeLabel;html=1;align=center;verticalAlign=middle;resizable=0;points=[];fontSize=12;" vertex="1" connectable="0" parent="WjdVC1TT9vtNxCyi74G0-24">
          <mxGeometry x="0.2422" y="-58" relative="1" as="geometry">
            <mxPoint x="84" y="58" as="offset" />
          </mxGeometry>
        </mxCell>
        <mxCell id="WjdVC1TT9vtNxCyi74G0-43" style="edgeStyle=none;curved=1;rounded=0;orthogonalLoop=1;jettySize=auto;html=1;fontSize=12;startSize=8;endSize=8;" edge="1" parent="1" source="WjdVC1TT9vtNxCyi74G0-6" target="WjdVC1TT9vtNxCyi74G0-44">
          <mxGeometry relative="1" as="geometry">
            <mxPoint x="418.70588235294144" y="258.8823529411766" as="targetPoint" />
          </mxGeometry>
        </mxCell>
        <mxCell id="WjdVC1TT9vtNxCyi74G0-6" value="&lt;font style=&quot;font-size: 14px;&quot;&gt;&lt;b&gt;GeoAPI&lt;/b&gt;&lt;br&gt;интерфейс для выгрузки данных из пользовательских ГеоБД&lt;/font&gt;" style="rounded=0;whiteSpace=wrap;html=1;fillColor=#dae8fc;strokeColor=#6c8ebf;" vertex="1" parent="1">
          <mxGeometry x="306" y="113" width="226" height="70" as="geometry" />
        </mxCell>
        <mxCell id="WjdVC1TT9vtNxCyi74G0-13" style="edgeStyle=none;curved=1;rounded=0;orthogonalLoop=1;jettySize=auto;html=1;fontSize=12;startSize=8;endSize=8;" edge="1" parent="1" source="WjdVC1TT9vtNxCyi74G0-7" target="WjdVC1TT9vtNxCyi74G0-12">
          <mxGeometry relative="1" as="geometry">
            <Array as="points">
              <mxPoint x="39" y="-216" />
            </Array>
          </mxGeometry>
        </mxCell>
        <mxCell id="WjdVC1TT9vtNxCyi74G0-19" style="edgeStyle=none;curved=1;rounded=0;orthogonalLoop=1;jettySize=auto;html=1;fontSize=12;startSize=8;endSize=8;" edge="1" parent="1" source="WjdVC1TT9vtNxCyi74G0-7" target="WjdVC1TT9vtNxCyi74G0-18">
          <mxGeometry relative="1" as="geometry" />
        </mxCell>
        <mxCell id="WjdVC1TT9vtNxCyi74G0-47" style="edgeStyle=none;curved=1;rounded=0;orthogonalLoop=1;jettySize=auto;html=1;fontSize=12;startSize=8;endSize=8;" edge="1" parent="1" source="WjdVC1TT9vtNxCyi74G0-7" target="WjdVC1TT9vtNxCyi74G0-46">
          <mxGeometry relative="1" as="geometry">
            <Array as="points">
              <mxPoint x="-160" y="-245" />
            </Array>
          </mxGeometry>
        </mxCell>
        <mxCell id="WjdVC1TT9vtNxCyi74G0-7" value="ГИС пользователь" style="shape=umlActor;verticalLabelPosition=bottom;verticalAlign=top;html=1;outlineConnect=0;" vertex="1" parent="1">
          <mxGeometry x="138" y="-275" width="28" height="60" as="geometry" />
        </mxCell>
        <mxCell id="WjdVC1TT9vtNxCyi74G0-14" style="edgeStyle=none;curved=1;rounded=0;orthogonalLoop=1;jettySize=auto;html=1;fontSize=12;startSize=8;endSize=8;" edge="1" parent="1" source="WjdVC1TT9vtNxCyi74G0-12" target="WjdVC1TT9vtNxCyi74G0-1">
          <mxGeometry relative="1" as="geometry" />
        </mxCell>
        <mxCell id="WjdVC1TT9vtNxCyi74G0-15" value="Авторизуется" style="edgeLabel;html=1;align=center;verticalAlign=middle;resizable=0;points=[];fontSize=12;" vertex="1" connectable="0" parent="WjdVC1TT9vtNxCyi74G0-14">
          <mxGeometry x="-0.2507" relative="1" as="geometry">
            <mxPoint x="4" y="12" as="offset" />
          </mxGeometry>
        </mxCell>
        <mxCell id="WjdVC1TT9vtNxCyi74G0-16" style="edgeStyle=none;curved=1;rounded=0;orthogonalLoop=1;jettySize=auto;html=1;fontSize=12;startSize=8;endSize=8;startArrow=classic;startFill=1;" edge="1" parent="1" source="WjdVC1TT9vtNxCyi74G0-12" target="WjdVC1TT9vtNxCyi74G0-5">
          <mxGeometry relative="1" as="geometry">
            <Array as="points">
              <mxPoint x="121" y="-15" />
            </Array>
          </mxGeometry>
        </mxCell>
        <mxCell id="WjdVC1TT9vtNxCyi74G0-17" value="Загружает данные,&lt;br&gt;Выгружает данные" style="edgeLabel;html=1;align=center;verticalAlign=middle;resizable=0;points=[];fontSize=12;" vertex="1" connectable="0" parent="WjdVC1TT9vtNxCyi74G0-16">
          <mxGeometry x="0.0194" y="-18" relative="1" as="geometry">
            <mxPoint x="8" y="11" as="offset" />
          </mxGeometry>
        </mxCell>
        <mxCell id="WjdVC1TT9vtNxCyi74G0-51" style="edgeStyle=none;curved=1;rounded=0;orthogonalLoop=1;jettySize=auto;html=1;fontSize=12;startSize=8;endSize=8;" edge="1" parent="1" source="WjdVC1TT9vtNxCyi74G0-12" target="WjdVC1TT9vtNxCyi74G0-49">
          <mxGeometry relative="1" as="geometry" />
        </mxCell>
        <mxCell id="WjdVC1TT9vtNxCyi74G0-12" value="&lt;font style=&quot;font-size: 14px;&quot;&gt;&lt;b&gt;garnet-cli&lt;/b&gt;&lt;br&gt;утилита командной&lt;br&gt;строки&lt;/font&gt;" style="rounded=0;whiteSpace=wrap;html=1;fillColor=#ffe6cc;strokeColor=#d79b00;" vertex="1" parent="1">
          <mxGeometry x="-151.5" y="-170" width="147" height="60" as="geometry" />
        </mxCell>
        <mxCell id="WjdVC1TT9vtNxCyi74G0-27" style="edgeStyle=none;curved=1;rounded=0;orthogonalLoop=1;jettySize=auto;html=1;fontSize=12;startSize=8;endSize=8;" edge="1" parent="1" source="WjdVC1TT9vtNxCyi74G0-18" target="WjdVC1TT9vtNxCyi74G0-26">
          <mxGeometry relative="1" as="geometry">
            <Array as="points">
              <mxPoint x="640" y="-35" />
            </Array>
          </mxGeometry>
        </mxCell>
        <mxCell id="WjdVC1TT9vtNxCyi74G0-29" value="Берёт доп. данные&lt;br&gt;для отображения на UI" style="edgeLabel;html=1;align=center;verticalAlign=middle;resizable=0;points=[];fontSize=12;" vertex="1" connectable="0" parent="WjdVC1TT9vtNxCyi74G0-27">
          <mxGeometry x="-0.5821" y="-8" relative="1" as="geometry">
            <mxPoint x="8" y="-2" as="offset" />
          </mxGeometry>
        </mxCell>
        <mxCell id="WjdVC1TT9vtNxCyi74G0-37" style="edgeStyle=none;curved=1;rounded=0;orthogonalLoop=1;jettySize=auto;html=1;fontSize=12;startSize=8;endSize=8;" edge="1" parent="1" source="WjdVC1TT9vtNxCyi74G0-18" target="WjdVC1TT9vtNxCyi74G0-6">
          <mxGeometry relative="1" as="geometry" />
        </mxCell>
        <mxCell id="WjdVC1TT9vtNxCyi74G0-38" value="Берёт геоданные&lt;br&gt;для отображения карт" style="edgeLabel;html=1;align=center;verticalAlign=middle;resizable=0;points=[];fontSize=12;" vertex="1" connectable="0" parent="WjdVC1TT9vtNxCyi74G0-37">
          <mxGeometry x="-0.2948" relative="1" as="geometry">
            <mxPoint as="offset" />
          </mxGeometry>
        </mxCell>
        <mxCell id="WjdVC1TT9vtNxCyi74G0-18" value="&lt;span style=&quot;font-size: 14px;&quot;&gt;&lt;b&gt;Web интерфейс&lt;/b&gt;&lt;/span&gt;" style="rounded=0;whiteSpace=wrap;html=1;fillColor=#dae8fc;strokeColor=#6c8ebf;" vertex="1" parent="1">
          <mxGeometry x="306" y="-170" width="147" height="60" as="geometry" />
        </mxCell>
        <mxCell id="WjdVC1TT9vtNxCyi74G0-20" style="edgeStyle=none;curved=1;rounded=0;orthogonalLoop=1;jettySize=auto;html=1;fontSize=12;startSize=8;endSize=8;" edge="1" parent="1" source="WjdVC1TT9vtNxCyi74G0-18" target="WjdVC1TT9vtNxCyi74G0-1">
          <mxGeometry relative="1" as="geometry">
            <Array as="points">
              <mxPoint x="30" y="-69" />
            </Array>
          </mxGeometry>
        </mxCell>
        <mxCell id="WjdVC1TT9vtNxCyi74G0-21" value="Авторизуется,&lt;br&gt;Берёт информацию&lt;br&gt;о пользователях" style="edgeLabel;html=1;align=center;verticalAlign=middle;resizable=0;points=[];fontSize=12;" vertex="1" connectable="0" parent="WjdVC1TT9vtNxCyi74G0-20">
          <mxGeometry x="-0.3907" y="16" relative="1" as="geometry">
            <mxPoint x="34" y="-9" as="offset" />
          </mxGeometry>
        </mxCell>
        <mxCell id="WjdVC1TT9vtNxCyi74G0-30" style="edgeStyle=none;curved=1;rounded=0;orthogonalLoop=1;jettySize=auto;html=1;exitX=0.5;exitY=1;exitDx=0;exitDy=0;fontSize=12;startSize=8;endSize=8;entryX=0.5;entryY=1;entryDx=0;entryDy=0;" edge="1" parent="1" source="WjdVC1TT9vtNxCyi74G0-26" target="WjdVC1TT9vtNxCyi74G0-1">
          <mxGeometry relative="1" as="geometry">
            <Array as="points">
              <mxPoint x="405" y="268" />
            </Array>
          </mxGeometry>
        </mxCell>
        <mxCell id="WjdVC1TT9vtNxCyi74G0-31" value="Проверяет авт. токен" style="edgeLabel;html=1;align=center;verticalAlign=middle;resizable=0;points=[];fontSize=12;" vertex="1" connectable="0" parent="WjdVC1TT9vtNxCyi74G0-30">
          <mxGeometry x="-0.743" y="1" relative="1" as="geometry">
            <mxPoint x="6" y="-11" as="offset" />
          </mxGeometry>
        </mxCell>
        <mxCell id="WjdVC1TT9vtNxCyi74G0-26" value="&lt;font style=&quot;font-size: 14px;&quot;&gt;&lt;b&gt;WebAPI&lt;/b&gt;&lt;br&gt;Предоставляет данные, нужные на web интерфейсе&lt;/font&gt;" style="rounded=0;whiteSpace=wrap;html=1;fillColor=#dae8fc;strokeColor=#6c8ebf;" vertex="1" parent="1">
          <mxGeometry x="568" y="113" width="226" height="70" as="geometry" />
        </mxCell>
        <mxCell id="WjdVC1TT9vtNxCyi74G0-32" value="&lt;font style=&quot;font-size: 14px;&quot;&gt;База данных&lt;br&gt;PostgreSQL&lt;/font&gt;" style="shape=cylinder3;whiteSpace=wrap;html=1;boundedLbl=1;backgroundOutline=1;size=15;" vertex="1" parent="1">
          <mxGeometry x="327.5" y="543" width="104" height="92" as="geometry" />
        </mxCell>
        <mxCell id="WjdVC1TT9vtNxCyi74G0-42" style="edgeStyle=none;curved=1;rounded=0;orthogonalLoop=1;jettySize=auto;html=1;fontSize=12;startSize=8;endSize=8;" edge="1" parent="1" source="WjdVC1TT9vtNxCyi74G0-5" target="WjdVC1TT9vtNxCyi74G0-44">
          <mxGeometry relative="1" as="geometry">
            <mxPoint x="327" y="353" as="targetPoint" />
          </mxGeometry>
        </mxCell>
        <mxCell id="WjdVC1TT9vtNxCyi74G0-5" value="&lt;font style=&quot;font-size: 14px;&quot;&gt;&lt;b&gt;ChunkStorageAPI&lt;/b&gt;&lt;br&gt;интерфейс для загрузки/выгрузки пользовательских ГеоБД&lt;/font&gt;" style="rounded=0;whiteSpace=wrap;html=1;fillColor=#dae8fc;strokeColor=#6c8ebf;" vertex="1" parent="1">
          <mxGeometry x="51" y="295" width="226" height="70" as="geometry" />
        </mxCell>
        <mxCell id="WjdVC1TT9vtNxCyi74G0-44" value="&lt;font style=&quot;font-size: 14px;&quot;&gt;ГеоСУБД&lt;br&gt;пользователей&lt;br&gt;(много штук)&lt;/font&gt;" style="shape=cylinder3;whiteSpace=wrap;html=1;boundedLbl=1;backgroundOutline=1;size=15;" vertex="1" parent="1">
          <mxGeometry x="358.5" y="281" width="121" height="98" as="geometry" />
        </mxCell>
        <mxCell id="WjdVC1TT9vtNxCyi74G0-48" style="edgeStyle=none;curved=1;rounded=0;orthogonalLoop=1;jettySize=auto;html=1;exitX=1;exitY=0.5;exitDx=0;exitDy=0;fontSize=12;startSize=8;endSize=8;" edge="1" parent="1" source="WjdVC1TT9vtNxCyi74G0-46" target="WjdVC1TT9vtNxCyi74G0-12">
          <mxGeometry relative="1" as="geometry" />
        </mxCell>
        <mxCell id="WjdVC1TT9vtNxCyi74G0-50" style="edgeStyle=none;curved=1;rounded=0;orthogonalLoop=1;jettySize=auto;html=1;exitX=0.5;exitY=1;exitDx=0;exitDy=0;fontSize=12;startSize=8;endSize=8;" edge="1" parent="1" source="WjdVC1TT9vtNxCyi74G0-46" target="WjdVC1TT9vtNxCyi74G0-49">
          <mxGeometry relative="1" as="geometry" />
        </mxCell>
        <mxCell id="WjdVC1TT9vtNxCyi74G0-52" value="" style="edgeStyle=none;curved=1;rounded=0;orthogonalLoop=1;jettySize=auto;html=1;fontSize=12;startSize=8;endSize=8;" edge="1" parent="1" source="WjdVC1TT9vtNxCyi74G0-46" target="WjdVC1TT9vtNxCyi74G0-49">
          <mxGeometry relative="1" as="geometry" />
        </mxCell>
        <mxCell id="WjdVC1TT9vtNxCyi74G0-46" value="&lt;span style=&quot;font-size: 14px;&quot;&gt;&lt;b&gt;QGIS Plugin&lt;/b&gt;&lt;/span&gt;&lt;div&gt;&lt;span style=&quot;font-size: 14px;&quot;&gt;плагин для QGIS&lt;/span&gt;&lt;/div&gt;" style="rounded=0;whiteSpace=wrap;html=1;fillColor=#ffe6cc;strokeColor=#d79b00;" vertex="1" parent="1">
          <mxGeometry x="-360" y="-170" width="147" height="60" as="geometry" />
        </mxCell>
        <mxCell id="WjdVC1TT9vtNxCyi74G0-49" value="&lt;font style=&quot;font-size: 14px;&quot;&gt;Локальная пользовательская ГеоСУБД&lt;/font&gt;" style="shape=cylinder3;whiteSpace=wrap;html=1;boundedLbl=1;backgroundOutline=1;size=15;" vertex="1" parent="1">
          <mxGeometry x="-347" y="-49" width="121" height="98" as="geometry" />
        </mxCell>
        <mxCell id="WjdVC1TT9vtNxCyi74G0-55" value="" style="group" vertex="1" connectable="0" parent="1">
          <mxGeometry x="-349" y="408" width="206" height="31" as="geometry" />
        </mxCell>
        <mxCell id="WjdVC1TT9vtNxCyi74G0-53" value="" style="rounded=0;whiteSpace=wrap;html=1;fillColor=#ffe6cc;strokeColor=#d79b00;" vertex="1" parent="WjdVC1TT9vtNxCyi74G0-55">
          <mxGeometry y="3" width="32" height="28" as="geometry" />
        </mxCell>
        <mxCell id="WjdVC1TT9vtNxCyi74G0-54" value="- локальные утилиты" style="text;html=1;align=center;verticalAlign=middle;resizable=0;points=[];autosize=1;strokeColor=none;fillColor=none;fontSize=16;" vertex="1" parent="WjdVC1TT9vtNxCyi74G0-55">
          <mxGeometry x="31" width="175" height="31" as="geometry" />
        </mxCell>
        <mxCell id="WjdVC1TT9vtNxCyi74G0-56" value="" style="group" vertex="1" connectable="0" parent="1">
          <mxGeometry x="-349" y="459" width="206" height="31" as="geometry" />
        </mxCell>
        <mxCell id="WjdVC1TT9vtNxCyi74G0-57" value="" style="rounded=0;whiteSpace=wrap;html=1;fillColor=#dae8fc;strokeColor=#6c8ebf;" vertex="1" parent="WjdVC1TT9vtNxCyi74G0-56">
          <mxGeometry y="3" width="32" height="28" as="geometry" />
        </mxCell>
        <mxCell id="WjdVC1TT9vtNxCyi74G0-58" value="- облачные сервисы" style="text;html=1;align=center;verticalAlign=middle;resizable=0;points=[];autosize=1;strokeColor=none;fillColor=none;fontSize=16;" vertex="1" parent="WjdVC1TT9vtNxCyi74G0-56">
          <mxGeometry x="32" width="168" height="31" as="geometry" />
        </mxCell>
      </root>
    </mxGraphModel>
  </diagram>
</mxfile>
